<!--?xml version="1.0" standalone="no"?-->
              <svg id="sw-js-blob-svg" viewBox="0 0 100 100" xmlns="http://www.w3.org/2000/svg" version="1.1">
                    <defs> 
                        <linearGradient id="sw-gradient" x1="0" x2="1" y1="1" y2="0">
                            <stop id="stop1" stop-color="rgba(55, 248, 61.674, 1)" offset="0%"></stop>
                            <stop id="stop2" stop-color="rgba(57.908, 197.013, 161.672, 1)" offset="100%"></stop>
                        </linearGradient>
                    </defs>
                <path fill="none" d="M22.5,-26.9C30.5,-20.1,39.3,-14.3,42.4,-6.1C45.4,2.1,42.7,12.6,36.7,19.3C30.6,26,21,28.8,12,31.4C2.9,34.1,-5.6,36.6,-12.4,34.1C-19.1,31.6,-23.9,24.1,-26.7,16.7C-29.5,9.3,-30.2,1.9,-30.2,-6.6C-30.2,-15.1,-29.5,-24.7,-24.3,-32C-19.2,-39.3,-9.6,-44.2,-1.2,-42.8C7.3,-41.5,14.5,-33.7,22.5,-26.9Z" width="100%" height="100%" transform="translate(50 50)" stroke-width="1" style="transition: all 0.3s ease 0s;" stroke="url(#sw-gradient)"></path>
              </svg>